<?xml version="1.0" encoding="UTF-8"?>
<svg xmlns="http://www.w3.org/2000/svg" xmlns:xlink="http://www.w3.org/1999/xlink" width="10px" height="12px" viewBox="0 0 10 11" version="1.1">
<g id="surface1">
<path style=" stroke:none;fill-rule:nonzero;fill:rgb(0%,0%,0%);fill-opacity:1;" d="M 10 4.53125 C 9.015625 4.53125 8.058594 4.246094 7.257812 3.707031 L 7.257812 7.460938 C 7.257812 8.886719 6.320312 10.164062 4.902344 10.664062 C 3.484375 11.164062 1.886719 10.78125 0.890625 9.707031 C -0.101562 8.628906 -0.28125 7.085938 0.4375 5.835938 C 1.160156 4.582031 2.628906 3.882812 4.128906 4.078125 L 4.128906 5.96875 C 3.441406 5.761719 2.695312 5.996094 2.273438 6.550781 C 1.855469 7.101562 1.859375 7.84375 2.285156 8.390625 C 2.710938 8.9375 3.460938 9.164062 4.148438 8.953125 C 4.832031 8.742188 5.292969 8.140625 5.296875 7.460938 L 5.296875 0.121094 L 7.257812 0.121094 C 7.257812 0.277344 7.273438 0.433594 7.300781 0.585938 C 7.4375 1.28125 7.875 1.890625 8.503906 2.273438 C 8.949219 2.546875 9.46875 2.695312 10 2.695312 Z M 10 4.53125 "/>
</g>
</svg>
